<svg width="120" height="120" viewBox="0 0 120 120" fill="none" xmlns="http://www.w3.org/2000/svg">
<rect width="120" height="120" fill="#45287C"/>
<path d="M19.8516 66C19.4036 66 19.1796 65.776 19.1796 65.328V55.824C19.1796 55.376 19.4036 55.152 19.8516 55.152C20.145 55.152 20.3903 55.296 20.5876 55.584L24.3636 61.264L24.0756 61.312L27.8836 55.584C28.065 55.296 28.337 55.152 28.6996 55.152C29.0623 55.152 29.2436 55.376 29.2436 55.824V65.328C29.2436 65.776 29.0196 66 28.5716 66C28.1236 66 27.8996 65.776 27.8996 65.328V57.168L28.3156 57.312L24.9556 62.256C24.7583 62.544 24.4863 62.688 24.1396 62.688C23.8996 62.688 23.681 62.544 23.4836 62.256L20.1236 57.312L20.5236 57.424V65.328C20.5236 65.776 20.2996 66 19.8516 66ZM35.7703 66C34.5489 66 33.6449 65.7093 33.0583 65.128C32.4769 64.5413 32.1863 63.6373 32.1863 62.416V58.72C32.1863 57.488 32.4796 56.584 33.0663 56.008C33.6529 55.4267 34.5543 55.1413 35.7703 55.152H37.6903C38.9169 55.152 39.8209 55.4427 40.4023 56.024C40.9836 56.6053 41.2743 57.5093 41.2743 58.736V62.416C41.2743 63.6373 40.9836 64.5413 40.4023 65.128C39.8209 65.7093 38.9169 66 37.6903 66H35.7703ZM35.7703 64.656H37.6903C38.2609 64.656 38.7089 64.5893 39.0343 64.456C39.3596 64.3173 39.5889 64.0853 39.7222 63.76C39.8609 63.4347 39.9303 62.9867 39.9303 62.416V58.736C39.9303 58.1707 39.8609 57.7253 39.7222 57.4C39.5889 57.0747 39.3596 56.8427 39.0343 56.704C38.7089 56.5653 38.2609 56.496 37.6903 56.496H35.7703C35.2049 56.4907 34.7596 56.5547 34.4343 56.688C34.1089 56.8213 33.8769 57.0507 33.7383 57.376C33.5996 57.7013 33.5303 58.1493 33.5303 58.72V62.416C33.5303 62.9867 33.5969 63.4347 33.7303 63.76C33.8689 64.0853 34.1009 64.3173 34.4263 64.456C34.7516 64.5893 35.1996 64.656 35.7703 64.656ZM44.8829 66C44.4349 66 44.2109 65.776 44.2109 65.328V55.824C44.2109 55.376 44.4349 55.152 44.8829 55.152C45.1122 55.152 45.3362 55.2853 45.5549 55.552L51.9869 63.84H51.6509V55.824C51.6509 55.376 51.8749 55.152 52.3229 55.152C52.7709 55.152 52.9949 55.376 52.9949 55.824V65.328C52.9949 65.776 52.7709 66 52.3229 66C52.0829 66 51.8589 65.8667 51.6509 65.6L45.2189 57.312H45.5549V65.328C45.5549 65.776 45.3309 66 44.8829 66ZM62.0235 66C61.5755 66 61.3515 65.776 61.3515 65.328V55.824C61.3515 55.376 61.5755 55.152 62.0235 55.152C62.4715 55.152 62.6955 55.376 62.6955 55.824V64.656H67.1275C67.5755 64.656 67.7995 64.88 67.7995 65.328C67.7995 65.776 67.5755 66 67.1275 66H62.0235ZM72.8953 66C71.6739 66 70.7699 65.7093 70.1833 65.128C69.6019 64.5413 69.3113 63.6373 69.3113 62.416V58.72C69.3113 57.488 69.6046 56.584 70.1913 56.008C70.7779 55.4267 71.6793 55.1413 72.8953 55.152H74.8153C76.0419 55.152 76.9459 55.4427 77.5273 56.024C78.1086 56.6053 78.3993 57.5093 78.3993 58.736V62.416C78.3993 63.6373 78.1086 64.5413 77.5273 65.128C76.9459 65.7093 76.0419 66 74.8153 66H72.8953ZM72.8953 64.656H74.8153C75.3859 64.656 75.8339 64.5893 76.1593 64.456C76.4846 64.3173 76.7139 64.0853 76.8472 63.76C76.9859 63.4347 77.0553 62.9867 77.0553 62.416V58.736C77.0553 58.1707 76.9859 57.7253 76.8472 57.4C76.7139 57.0747 76.4846 56.8427 76.1593 56.704C75.8339 56.5653 75.3859 56.496 74.8153 56.496H72.8953C72.3299 56.4907 71.8846 56.5547 71.5593 56.688C71.2339 56.8213 71.0019 57.0507 70.8633 57.376C70.7246 57.7013 70.6553 58.1493 70.6553 58.72V62.416C70.6553 62.9867 70.7219 63.4347 70.8553 63.76C70.9939 64.0853 71.2259 64.3173 71.5513 64.456C71.8766 64.5893 72.3246 64.656 72.8953 64.656ZM84.5359 66C83.3145 66 82.4105 65.7093 81.8239 65.128C81.2425 64.5413 80.9519 63.6373 80.9519 62.416V58.736C80.9519 57.504 81.2425 56.5973 81.8239 56.016C82.4052 55.4293 83.3039 55.1413 84.5199 55.152H86.4559C87.4585 55.152 88.2239 55.36 88.7519 55.776C89.2799 56.1867 89.5865 56.8373 89.6719 57.728C89.7039 57.952 89.6612 58.1227 89.5439 58.24C89.4265 58.3573 89.2559 58.416 89.0319 58.416C88.6265 58.416 88.3919 58.192 88.3279 57.744C88.2745 57.2533 88.1039 56.9227 87.8159 56.752C87.5332 56.5813 87.0799 56.496 86.4559 56.496H84.5199C83.9545 56.4907 83.5092 56.5547 83.1839 56.688C82.8639 56.8213 82.6345 57.0533 82.4959 57.384C82.3625 57.7093 82.2959 58.16 82.2959 58.736V62.416C82.2959 62.9867 82.3625 63.4347 82.4959 63.76C82.6345 64.0853 82.8665 64.3173 83.1919 64.456C83.5172 64.5893 83.9652 64.656 84.5359 64.656H86.4559C86.9519 64.656 87.3385 64.6027 87.6159 64.496C87.8985 64.384 88.0959 64.1893 88.2079 63.912C88.3199 63.6347 88.3759 63.2427 88.3759 62.736V61.984L87.1279 61.968C86.6799 61.968 86.4559 61.744 86.4559 61.296C86.4559 60.848 86.6799 60.624 87.1279 60.624L89.0479 60.64C89.4959 60.64 89.7199 60.864 89.7199 61.312V62.736C89.7199 63.872 89.4559 64.7013 88.9279 65.224C88.3999 65.7413 87.5759 66 86.4559 66H84.5359ZM95.7078 66C94.4864 66 93.5824 65.7093 92.9958 65.128C92.4144 64.5413 92.1238 63.6373 92.1238 62.416V58.72C92.1238 57.488 92.4171 56.584 93.0038 56.008C93.5904 55.4267 94.4918 55.1413 95.7078 55.152H97.6278C98.8544 55.152 99.7584 55.4427 100.34 56.024C100.921 56.6053 101.212 57.5093 101.212 58.736V62.416C101.212 63.6373 100.921 64.5413 100.34 65.128C99.7584 65.7093 98.8544 66 97.6278 66H95.7078ZM95.7078 64.656H97.6278C98.1984 64.656 98.6464 64.5893 98.9718 64.456C99.2971 64.3173 99.5264 64.0853 99.6597 63.76C99.7984 63.4347 99.8678 62.9867 99.8678 62.416V58.736C99.8678 58.1707 99.7984 57.7253 99.6597 57.4C99.5264 57.0747 99.2971 56.8427 98.9718 56.704C98.6464 56.5653 98.1984 56.496 97.6278 56.496H95.7078C95.1424 56.4907 94.6971 56.5547 94.3718 56.688C94.0464 56.8213 93.8144 57.0507 93.6758 57.376C93.5371 57.7013 93.4678 58.1493 93.4678 58.72V62.416C93.4678 62.9867 93.5344 63.4347 93.6678 63.76C93.8064 64.0853 94.0384 64.3173 94.3638 64.456C94.6891 64.5893 95.1371 64.656 95.7078 64.656Z" fill="white"/>
</svg>
