<svg width="24" height="24" viewBox="0 0 24 24" fill="none" xmlns="http://www.w3.org/2000/svg">
<circle cx="12" cy="12" r="12" fill="#45287C"/>
<g clip-path="url(#clip0_24_54)">
<path d="M20.3333 8.66665V17C20.3333 17.9166 19.5833 18.6666 18.6666 18.6666H5.33329C4.41663 18.6666 3.66663 17.9166 3.66663 17L3.67496 6.99998C3.67496 6.08331 4.41663 5.33331 5.33329 5.33331H10.3333L12 6.99998H18.6666C19.5833 6.99998 20.3333 7.74998 20.3333 8.66665ZM15.75 10.3333V9.49998H14.0833V10.3333H12V11.5833H12.8333V14.9166C12.8333 15.6083 13.3916 16.1666 14.0833 16.1666H15.75C16.4416 16.1666 17 15.6083 17 14.9166V11.5833H17.8333V10.3333H15.75ZM15.75 14.9166H14.0833V11.5833H15.75V14.9166Z" fill="white"/>
</g>
<defs>
<clipPath id="clip0_24_54">
<rect width="20" height="20" fill="white" transform="translate(2 2)"/>
</clipPath>
</defs>
</svg>
