<svg width="24" height="24" viewBox="0 0 24 24" fill="none" xmlns="http://www.w3.org/2000/svg">
<circle cx="12" cy="12" r="12" fill="#DC3F94"/>
<path d="M13.6666 18.6666V18.2083C13.6666 17.5833 13.9722 17.0868 14.5833 16.7187C15.1944 16.3507 16 16.1666 17 16.1666C18 16.1666 18.8055 16.3507 19.4166 16.7187C20.0277 17.0868 20.3333 17.5833 20.3333 18.2083V18.6666H13.6666ZM17 15.3333C16.5416 15.3333 16.1493 15.1701 15.8229 14.8437C15.4965 14.5173 15.3333 14.125 15.3333 13.6666C15.3333 13.2083 15.4965 12.816 15.8229 12.4896C16.1493 12.1632 16.5416 12 17 12C17.4583 12 17.8507 12.1632 18.177 12.4896C18.5034 12.816 18.6666 13.2083 18.6666 13.6666C18.6666 14.125 18.5034 14.5173 18.177 14.8437C17.8507 15.1701 17.4583 15.3333 17 15.3333ZM5.33329 18.6666C4.87496 18.6666 4.4826 18.5035 4.15621 18.1771C3.82982 17.8507 3.66663 17.4583 3.66663 17V6.99998C3.66663 6.54165 3.82982 6.14929 4.15621 5.8229C4.4826 5.49651 4.87496 5.33331 5.33329 5.33331H9.64579C9.86801 5.33331 10.0798 5.37498 10.2812 5.45831C10.4826 5.54165 10.6597 5.6597 10.8125 5.81248L12 6.99998H18.6666C19.125 6.99998 19.5173 7.16317 19.8437 7.48956C20.1701 7.81595 20.3333 8.20831 20.3333 8.66665V11.375C19.8472 11.0278 19.3194 10.7673 18.75 10.5937C18.1805 10.4201 17.5972 10.3333 17 10.3333C15.375 10.3333 13.9965 10.8993 12.8645 12.0312C11.7326 13.1632 11.1666 14.5416 11.1666 16.1666C11.1666 16.6111 11.2118 17.0416 11.302 17.4583C11.3923 17.875 11.5347 18.2778 11.7291 18.6666H5.33329Z" fill="white"/>
</svg>
