<svg width="24" height="24" viewBox="0 0 24 24" fill="none" xmlns="http://www.w3.org/2000/svg">
<circle cx="12" cy="12" r="12" fill="#45287C"/>
<path d="M17 17.8333C17.4583 17.8333 17.8507 17.6701 18.177 17.3437C18.5034 17.0173 18.6666 16.625 18.6666 16.1666C18.6666 15.7083 18.5034 15.316 18.177 14.9896C17.8507 14.6632 17.4583 14.5 17 14.5C16.5416 14.5 16.1493 14.6632 15.8229 14.9896C15.4965 15.316 15.3333 15.7083 15.3333 16.1666C15.3333 16.625 15.4965 17.0173 15.8229 17.3437C16.1493 17.6701 16.5416 17.8333 17 17.8333ZM16.8333 20.3333C16.6388 20.3333 16.4687 20.2708 16.3229 20.1458C16.177 20.0208 16.0833 19.8611 16.0416 19.6666L15.9166 19.0833C15.75 19.0139 15.5937 18.941 15.4479 18.8646C15.302 18.7882 15.1527 18.6944 15 18.5833L14.3958 18.7708C14.2152 18.8264 14.0382 18.8194 13.8645 18.75C13.6909 18.6805 13.5555 18.5694 13.4583 18.4166L13.2916 18.125C13.1944 17.9583 13.1597 17.7778 13.1875 17.5833C13.2152 17.3889 13.3055 17.2291 13.4583 17.1041L13.9166 16.7083C13.8888 16.5416 13.875 16.3611 13.875 16.1666C13.875 15.9722 13.8888 15.7916 13.9166 15.625L13.4583 15.2291C13.3055 15.1041 13.2152 14.9479 13.1875 14.7604C13.1597 14.5729 13.1944 14.3958 13.2916 14.2291L13.4791 13.9166C13.5763 13.7639 13.7083 13.6528 13.875 13.5833C14.0416 13.5139 14.2152 13.5069 14.3958 13.5625L15 13.75C15.1527 13.6389 15.302 13.5451 15.4479 13.4687C15.5937 13.3923 15.75 13.3194 15.9166 13.25L16.0416 12.6458C16.0833 12.4514 16.177 12.2951 16.3229 12.1771C16.4687 12.059 16.6388 12 16.8333 12H17.1666C17.3611 12 17.5312 12.0625 17.677 12.1875C17.8229 12.3125 17.9166 12.4722 17.9583 12.6666L18.0833 13.25C18.25 13.3194 18.4062 13.3923 18.552 13.4687C18.6979 13.5451 18.8472 13.6389 19 13.75L19.6041 13.5625C19.7847 13.5069 19.9618 13.5139 20.1354 13.5833C20.309 13.6528 20.4444 13.7639 20.5416 13.9166L20.7083 14.2083C20.8055 14.375 20.8402 14.5555 20.8125 14.75C20.7847 14.9444 20.6944 15.1041 20.5416 15.2291L20.0833 15.625C20.1111 15.7916 20.125 15.9722 20.125 16.1666C20.125 16.3611 20.1111 16.5416 20.0833 16.7083L20.5416 17.1041C20.6944 17.2291 20.7847 17.3854 20.8125 17.5729C20.8402 17.7604 20.8055 17.9375 20.7083 18.1041L20.5208 18.4166C20.4236 18.5694 20.2916 18.6805 20.125 18.75C19.9583 18.8194 19.7847 18.8264 19.6041 18.7708L19 18.5833C18.8472 18.6944 18.6979 18.7882 18.552 18.8646C18.4062 18.941 18.25 19.0139 18.0833 19.0833L17.9583 19.6875C17.9166 19.8819 17.8229 20.0382 17.677 20.1562C17.5312 20.2743 17.3611 20.3333 17.1666 20.3333H16.8333ZM5.33329 18.6666C4.87496 18.6666 4.4826 18.5035 4.15621 18.1771C3.82982 17.8507 3.66663 17.4583 3.66663 17V6.99998C3.66663 6.54165 3.82982 6.14929 4.15621 5.8229C4.4826 5.49651 4.87496 5.33331 5.33329 5.33331H9.64579C9.86801 5.33331 10.0798 5.37498 10.2812 5.45831C10.4826 5.54165 10.6597 5.6597 10.8125 5.81248L12 6.99998H18.6666C19.125 6.99998 19.5173 7.16317 19.8437 7.48956C20.1701 7.81595 20.3333 8.20831 20.3333 8.66665V11.375C19.8472 11.0278 19.3194 10.7673 18.75 10.5937C18.1805 10.4201 17.5972 10.3333 17 10.3333C15.375 10.3333 13.9965 10.8993 12.8645 12.0312C11.7326 13.1632 11.1666 14.5416 11.1666 16.1666C11.1666 16.6111 11.2118 17.0416 11.302 17.4583C11.3923 17.875 11.5347 18.2778 11.7291 18.6666H5.33329Z" fill="white"/>
</svg>
