<svg width="24" height="24" viewBox="0 0 24 24" fill="none" xmlns="http://www.w3.org/2000/svg">
<circle cx="12" cy="12" r="12" fill="#45287C"/>
<g clip-path="url(#clip0_24_55)">
<path d="M18.6666 6.99998H12L10.3333 5.33331H5.33329C4.41663 5.33331 3.67496 6.08331 3.67496 6.99998L3.66663 17C3.66663 17.9166 4.41663 18.6666 5.33329 18.6666H18.6666C19.5833 18.6666 20.3333 17.9166 20.3333 17V8.66665C20.3333 7.74998 19.5833 6.99998 18.6666 6.99998ZM14.5 9.49998C15.4166 9.49998 16.1666 10.25 16.1666 11.1666C16.1666 12.0833 15.4166 12.8333 14.5 12.8333C13.5833 12.8333 12.8333 12.0833 12.8333 11.1666C12.8333 10.25 13.5833 9.49998 14.5 9.49998ZM17.8333 16.1666H11.1666V15.3333C11.1666 14.225 13.3916 13.6666 14.5 13.6666C15.6083 13.6666 17.8333 14.225 17.8333 15.3333V16.1666Z" fill="white"/>
</g>
<defs>
<clipPath id="clip0_24_55">
<rect width="20" height="20" fill="white" transform="translate(2 2)"/>
</clipPath>
</defs>
</svg>
