<svg width="24" height="24" viewBox="0 0 24 24" fill="none" xmlns="http://www.w3.org/2000/svg">
<circle cx="12" cy="12" r="12" fill="#DC3F94"/>
<path d="M12 15.3334C11.0417 15.3334 10.1459 15.4792 9.31254 15.7709C8.47921 16.0625 7.70837 16.4722 7.00004 17V18.6667H17V17C16.2917 16.4722 15.5209 16.0625 14.6875 15.7709C13.8542 15.4792 12.9584 15.3334 12 15.3334ZM7.00004 20.3334C6.54171 20.3334 6.14935 20.1702 5.82296 19.8438C5.49657 19.5174 5.33337 19.125 5.33337 18.6667V5.33335C5.33337 4.87502 5.49657 4.48266 5.82296 4.15627C6.14935 3.82988 6.54171 3.66669 7.00004 3.66669H17C17.4584 3.66669 17.8507 3.82988 18.1771 4.15627C18.5035 4.48266 18.6667 4.87502 18.6667 5.33335V18.6667C18.6667 19.125 18.5035 19.5174 18.1771 19.8438C17.8507 20.1702 17.4584 20.3334 17 20.3334H7.00004ZM12 13.6667C12.8056 13.6667 13.4931 13.382 14.0625 12.8125C14.632 12.2431 14.9167 11.5556 14.9167 10.75C14.9167 9.94446 14.632 9.25696 14.0625 8.68752C13.4931 8.11808 12.8056 7.83335 12 7.83335C11.1945 7.83335 10.507 8.11808 9.93754 8.68752C9.3681 9.25696 9.08337 9.94446 9.08337 10.75C9.08337 11.5556 9.3681 12.2431 9.93754 12.8125C10.507 13.382 11.1945 13.6667 12 13.6667Z" fill="white"/>
</svg>
