<svg width="24" height="24" viewBox="0 0 24 24" fill="none" xmlns="http://www.w3.org/2000/svg">
<circle cx="12" cy="12" r="12" fill="#DC3F94"/>
<g clip-path="url(#clip0_12_157)">
<path d="M12 11.625C13.3583 11.625 14.5583 11.95 15.5333 12.375C16.4333 12.775 17 13.675 17 14.65V16H7V14.6583C7 13.675 7.56667 12.775 8.46667 12.3833C9.44167 11.95 10.6417 11.625 12 11.625ZM5.33333 11.8333C6.25 11.8333 7 11.0833 7 10.1667C7 9.25 6.25 8.5 5.33333 8.5C4.41667 8.5 3.66667 9.25 3.66667 10.1667C3.66667 11.0833 4.41667 11.8333 5.33333 11.8333ZM6.275 12.75C5.96667 12.7 5.65833 12.6667 5.33333 12.6667C4.50833 12.6667 3.725 12.8417 3.01667 13.15C2.4 13.4167 2 14.0167 2 14.6917V16H5.75V14.6583C5.75 13.9667 5.94167 13.3167 6.275 12.75ZM18.6667 11.8333C19.5833 11.8333 20.3333 11.0833 20.3333 10.1667C20.3333 9.25 19.5833 8.5 18.6667 8.5C17.75 8.5 17 9.25 17 10.1667C17 11.0833 17.75 11.8333 18.6667 11.8333ZM22 14.6917C22 14.0167 21.6 13.4167 20.9833 13.15C20.275 12.8417 19.4917 12.6667 18.6667 12.6667C18.3417 12.6667 18.0333 12.7 17.725 12.75C18.0583 13.3167 18.25 13.9667 18.25 14.6583V16H22V14.6917ZM12 6C13.3833 6 14.5 7.11667 14.5 8.5C14.5 9.88333 13.3833 11 12 11C10.6167 11 9.5 9.88333 9.5 8.5C9.5 7.11667 10.6167 6 12 6Z" fill="white"/>
</g>
<defs>
<clipPath id="clip0_12_157">
<rect width="20" height="20" fill="white" transform="translate(2 1)"/>
</clipPath>
</defs>
</svg>
