<svg width="24" height="24" viewBox="0 0 24 24" fill="none" xmlns="http://www.w3.org/2000/svg">
<circle cx="12" cy="12" r="12" fill="#45287C"/>
<path d="M18.25 11.1041L17.0834 12.25C16.9306 12.4028 16.7396 12.4826 16.5105 12.4896C16.2813 12.4965 16.0834 12.4166 15.9167 12.25C15.7639 12.0972 15.6875 11.9028 15.6875 11.6666C15.6875 11.4305 15.7639 11.2361 15.9167 11.0833L17.0625 9.91665L15.9167 8.77081C15.7639 8.61804 15.6875 8.42706 15.6875 8.1979C15.6875 7.96873 15.7639 7.77081 15.9167 7.60415C16.0834 7.43748 16.2813 7.35415 16.5105 7.35415C16.7396 7.35415 16.9375 7.43748 17.1042 7.60415L18.25 8.74998L19.3959 7.58331C19.5487 7.41665 19.7396 7.33331 19.9688 7.33331C20.198 7.33331 20.3959 7.41665 20.5625 7.58331C20.7292 7.74998 20.8125 7.9479 20.8125 8.17706C20.8125 8.40623 20.7292 8.60415 20.5625 8.77081L19.4167 9.91665L20.5834 11.0833C20.75 11.25 20.8299 11.4444 20.823 11.6666C20.816 11.8889 20.7292 12.0833 20.5625 12.25C20.3959 12.4028 20.2014 12.4826 19.9792 12.4896C19.757 12.4965 19.5625 12.4166 19.3959 12.25L18.25 11.1041ZM9.50004 12C8.58337 12 7.79865 11.6736 7.14587 11.0208C6.4931 10.368 6.16671 9.58331 6.16671 8.66665C6.16671 7.74998 6.4931 6.96526 7.14587 6.31248C7.79865 5.6597 8.58337 5.33331 9.50004 5.33331C10.4167 5.33331 11.2014 5.6597 11.8542 6.31248C12.507 6.96526 12.8334 7.74998 12.8334 8.66665C12.8334 9.58331 12.507 10.368 11.8542 11.0208C11.2014 11.6736 10.4167 12 9.50004 12ZM2.83337 17V16.3333C2.83337 15.8611 2.9549 15.4271 3.19796 15.0312C3.44101 14.6354 3.76393 14.3333 4.16671 14.125C5.02782 13.6944 5.90282 13.3715 6.79171 13.1562C7.6806 12.941 8.58337 12.8333 9.50004 12.8333C10.4167 12.8333 11.3195 12.941 12.2084 13.1562C13.0973 13.3715 13.9723 13.6944 14.8334 14.125C15.2362 14.3333 15.5591 14.6354 15.8021 15.0312C16.0452 15.4271 16.1667 15.8611 16.1667 16.3333V17C16.1667 17.4583 16.0035 17.8507 15.6771 18.1771C15.3507 18.5035 14.9584 18.6666 14.5 18.6666H4.50004C4.04171 18.6666 3.64935 18.5035 3.32296 18.1771C2.99657 17.8507 2.83337 17.4583 2.83337 17Z" fill="white"/>
</svg>
