<svg width="24" height="24" viewBox="0 0 24 24" fill="none" xmlns="http://www.w3.org/2000/svg">
<circle cx="12" cy="12" r="12" fill="#DC3F94"/>
<path d="M20.3333 9.5V7.83334H18.6667V9.5H17V11.1667H18.6667V12.8333H20.3333V11.1667H22V9.5H20.3333Z" fill="white"/>
<path d="M8.66659 12C10.5083 12 11.9999 10.5083 11.9999 8.66667C11.9999 6.825 10.5083 5.33334 8.66659 5.33334C6.82492 5.33334 5.33325 6.825 5.33325 8.66667C5.33325 10.5083 6.82492 12 8.66659 12Z" fill="white"/>
<path d="M8.66667 12.8333C6.44167 12.8333 2 13.95 2 16.1667V18.6667H15.3333V16.1667C15.3333 13.95 10.8917 12.8333 8.66667 12.8333Z" fill="white"/>
<path d="M12.425 5.375C13.1917 6.25833 13.6667 7.40833 13.6667 8.66667C13.6667 9.925 13.1917 11.075 12.425 11.9583C14.0584 11.75 15.3334 10.3667 15.3334 8.66667C15.3334 6.96667 14.0584 5.58333 12.425 5.375Z" fill="white"/>
<path d="M15.7749 13.525C16.5166 14.2167 16.9999 15.0833 16.9999 16.1667V18.6667H18.6666V16.1667C18.6666 14.9583 17.3416 14.075 15.7749 13.525Z" fill="white"/>
</svg>
