<svg width="24" height="24" viewBox="0 0 24 24" fill="none" xmlns="http://www.w3.org/2000/svg">
<circle cx="12" cy="12" r="12" fill="#DC3F94"/>
<g clip-path="url(#clip0_11_120)">
<path d="M15.3333 11.1667C16.7166 11.1667 17.8249 10.05 17.8249 8.66667C17.8249 7.28334 16.7166 6.16667 15.3333 6.16667C13.9499 6.16667 12.8333 7.28334 12.8333 8.66667C12.8333 10.05 13.9499 11.1667 15.3333 11.1667ZM8.66658 11.1667C10.0499 11.1667 11.1583 10.05 11.1583 8.66667C11.1583 7.28334 10.0499 6.16667 8.66658 6.16667C7.28325 6.16667 6.16658 7.28334 6.16658 8.66667C6.16658 10.05 7.28325 11.1667 8.66658 11.1667ZM8.66658 12.8333C6.72492 12.8333 2.83325 13.8083 2.83325 15.75V17.8333H14.4999V15.75C14.4999 13.8083 10.6083 12.8333 8.66658 12.8333ZM15.3333 12.8333C15.0916 12.8333 14.8166 12.85 14.5249 12.875C15.4916 13.575 16.1666 14.5167 16.1666 15.75V17.8333H21.1666V15.75C21.1666 13.8083 17.2749 12.8333 15.3333 12.8333Z" fill="white"/>
</g>
<defs>
<clipPath id="clip0_11_120">
<rect width="20" height="20" fill="white" transform="translate(2 2)"/>
</clipPath>
</defs>
</svg>
