<svg width="24" height="24" viewBox="0 0 24 24" fill="none" xmlns="http://www.w3.org/2000/svg">
<circle cx="12" cy="12" r="12" fill="#45287C"/>
<g clip-path="url(#clip0_100_3)">
<path d="M20.3334 9.50004V7.83337H18.6667V9.50004H17.0001V11.1667H18.6667V12.8334H20.3334V11.1667H22.0001V9.50004H20.3334Z" fill="white"/>
<path d="M8.66671 12C10.5084 12 12 10.5084 12 8.66671C12 6.82504 10.5084 5.33337 8.66671 5.33337C6.82504 5.33337 5.33337 6.82504 5.33337 8.66671C5.33337 10.5084 6.82504 12 8.66671 12Z" fill="white"/>
<path d="M8.66673 12.8334C6.44173 12.8334 2.00006 13.95 2.00006 16.1667V18.6667H15.3334V16.1667C15.3334 13.95 10.8917 12.8334 8.66673 12.8334Z" fill="white"/>
<path d="M12.425 5.375C13.1917 6.25833 13.6667 7.40833 13.6667 8.66667C13.6667 9.925 13.1917 11.075 12.425 11.9583C14.0584 11.75 15.3334 10.3667 15.3334 8.66667C15.3334 6.96667 14.0584 5.58333 12.425 5.375Z" fill="white"/>
<path d="M15.7751 13.525C16.5168 14.2167 17.0001 15.0834 17.0001 16.1667V18.6667H18.6668V16.1667C18.6668 14.9584 17.3418 14.075 15.7751 13.525Z" fill="white"/>
<rect x="16" y="7" width="6" height="6" fill="#45287C"/>
</g>
<path d="M18.5245 7.46352C18.6741 7.00287 19.3259 7.00287 19.4755 7.46353L19.7858 8.41844C19.8527 8.62445 20.0447 8.76393 20.2613 8.76393H21.2654C21.7497 8.76393 21.9511 9.38374 21.5593 9.66844L20.747 10.2586C20.5717 10.3859 20.4984 10.6116 20.5653 10.8176L20.8756 11.7725C21.0253 12.2332 20.498 12.6163 20.1062 12.3316L19.2939 11.7414C19.1186 11.6141 18.8814 11.6141 18.7061 11.7414L17.8938 12.3316C17.502 12.6163 16.9747 12.2332 17.1244 11.7725L17.4347 10.8176C17.5016 10.6116 17.4283 10.3859 17.253 10.2586L16.4407 9.66844C16.0489 9.38374 16.2503 8.76393 16.7346 8.76393H17.7387C17.9553 8.76393 18.1473 8.62445 18.2142 8.41844L18.5245 7.46352Z" fill="white"/>
<defs>
<clipPath id="clip0_100_3">
<rect width="20" height="20" fill="white" transform="translate(2.00006 2)"/>
</clipPath>
</defs>
</svg>
