<svg width="24" height="24" viewBox="0 0 24 24" fill="none" xmlns="http://www.w3.org/2000/svg">
<circle cx="12" cy="12" r="12" fill="#DC3F94"/>
<path d="M13.6667 18.6666V17.625C13.6667 17.4028 13.7118 17.191 13.8021 16.9896C13.8924 16.7882 14.0139 16.6111 14.1667 16.4583L18.2709 12.3541C18.3959 12.2291 18.5348 12.1389 18.6875 12.0833C18.8403 12.0278 18.9931 12 19.1459 12C19.3125 12 19.4723 12.0312 19.625 12.0937C19.7778 12.1562 19.9167 12.25 20.0417 12.375L20.8125 13.1458C20.9237 13.2708 21.0105 13.4097 21.073 13.5625C21.1355 13.7153 21.1667 13.868 21.1667 14.0208C21.1667 14.1736 21.1389 14.3298 21.0834 14.4896C21.0278 14.6493 20.9375 14.7916 20.8125 14.9166L16.7084 19.0208C16.5556 19.1736 16.3785 19.2916 16.1771 19.375C15.9757 19.4583 15.7639 19.5 15.5417 19.5H14.5C14.2639 19.5 14.066 19.4201 13.9063 19.2604C13.7466 19.1007 13.6667 18.9028 13.6667 18.6666ZM5.33337 17.8333V16.3333C5.33337 15.8611 5.4549 15.4271 5.69796 15.0312C5.94101 14.6354 6.26393 14.3333 6.66671 14.125C7.52782 13.6944 8.40282 13.3715 9.29171 13.1562C10.1806 12.941 11.0834 12.8333 12 12.8333C12.5139 12.8333 13.0209 12.8646 13.5209 12.9271C14.0209 12.9896 14.5209 13.0903 15.0209 13.2291L12.7292 15.5208C12.4931 15.7569 12.3125 16.0278 12.1875 16.3333C12.0625 16.6389 12 16.9583 12 17.2916V18.6666H6.16671C5.9306 18.6666 5.73268 18.5868 5.57296 18.4271C5.41324 18.2673 5.33337 18.0694 5.33337 17.8333ZM19.1459 14.8333L19.9167 14.0208L19.1459 13.25L18.3542 14.0416L19.1459 14.8333ZM12 12C11.0834 12 10.2987 11.6736 9.64587 11.0208C8.9931 10.368 8.66671 9.58331 8.66671 8.66665C8.66671 7.74998 8.9931 6.96526 9.64587 6.31248C10.2987 5.6597 11.0834 5.33331 12 5.33331C12.9167 5.33331 13.7014 5.6597 14.3542 6.31248C15.007 6.96526 15.3334 7.74998 15.3334 8.66665C15.3334 9.58331 15.007 10.368 14.3542 11.0208C13.7014 11.6736 12.9167 12 12 12Z" fill="white"/>
</svg>
