<svg width="24" height="24" viewBox="0 0 24 24" fill="none" xmlns="http://www.w3.org/2000/svg">
<circle cx="12" cy="12" r="12" fill="#DC3F94"/>
<path d="M11.5245 5.46352C11.6741 5.00287 12.3259 5.00287 12.4755 5.46353L13.6839 9.18237C13.7508 9.38838 13.9428 9.52786 14.1594 9.52786H18.0696C18.554 9.52786 18.7554 10.1477 18.3635 10.4324L15.2001 12.7307C15.0248 12.8581 14.9515 13.0838 15.0184 13.2898L16.2268 17.0086C16.3764 17.4693 15.8492 17.8523 15.4573 17.5676L12.2939 15.2693C12.1186 15.1419 11.8814 15.1419 11.7061 15.2693L8.54267 17.5676C8.15081 17.8523 7.62357 17.4693 7.77325 17.0086L8.98157 13.2898C9.04851 13.0838 8.97518 12.8581 8.79994 12.7307L5.6365 10.4324C5.24464 10.1477 5.44603 9.52786 5.93039 9.52786H9.84062C10.0572 9.52786 10.2492 9.38838 10.3161 9.18237L11.5245 5.46352Z" fill="white"/>
</svg>
