<svg width="24" height="24" viewBox="0 0 24 24" fill="none" xmlns="http://www.w3.org/2000/svg">
<circle cx="12" cy="12" r="12" fill="#45287C"/>
<g clip-path="url(#clip0_42_31)">
<path d="M15.3334 11.1666C16.7167 11.1666 17.825 10.05 17.825 8.66663C17.825 7.28329 16.7167 6.16663 15.3334 6.16663C13.95 6.16663 12.8334 7.28329 12.8334 8.66663C12.8334 10.05 13.95 11.1666 15.3334 11.1666ZM8.66671 11.1666C10.05 11.1666 11.1584 10.05 11.1584 8.66663C11.1584 7.28329 10.05 6.16663 8.66671 6.16663C7.28337 6.16663 6.16671 7.28329 6.16671 8.66663C6.16671 10.05 7.28337 11.1666 8.66671 11.1666ZM8.66671 12.8333C6.72504 12.8333 2.83337 13.8083 2.83337 15.75V17.8333H14.5V15.75C14.5 13.8083 10.6084 12.8333 8.66671 12.8333ZM15.3334 12.8333C15.0917 12.8333 14.8167 12.85 14.525 12.875C15.4917 13.575 16.1667 14.5166 16.1667 15.75V17.8333H21.1667V15.75C21.1667 13.8083 17.275 12.8333 15.3334 12.8333Z" fill="white"/>
</g>
<defs>
<clipPath id="clip0_42_31">
<rect width="20" height="20" fill="white" transform="translate(2 2)"/>
</clipPath>
</defs>
</svg>
